<svg width="278" height="220" viewBox="0 0 278 220" fill="none" xmlns="http://www.w3.org/2000/svg">
  <mask id="path-1-inside-1_3290_1762" fill="white">
    <path fill-rule="evenodd" clip-rule="evenodd" d="M8 1C3.58172 1 0 4.58172 0 9V46.4615C0 50.8798 3.58173 54.4615 8.00001 54.4615H127.754L138.221 64.7653C138.746 65.2819 139.596 65.2819 140.121 64.7653L150.588 54.4615H270C274.418 54.4615 278 50.8798 278 46.4615V9C278 4.58172 274.418 1 270 1H8Z"/>
  </mask>
  <path fill-rule="evenodd" clip-rule="evenodd" d="M8 1C3.58172 1 0 4.58172 0 9V46.4615C0 50.8798 3.58173 54.4615 8.00001 54.4615H127.754L138.221 64.7653C138.746 65.2819 139.596 65.2819 140.121 64.7653L150.588 54.4615H270C274.418 54.4615 278 50.8798 278 46.4615V9C278 4.58172 274.418 1 270 1H8Z" fill="white"/>
  <path d="M127.754 54.4615L130.567 51.6042L129.396 50.4519H127.754V54.4615ZM138.221 64.7653L141.034 61.9079V61.9079L138.221 64.7653ZM140.121 64.7653L137.308 61.9079V61.9079L140.121 64.7653ZM150.588 54.4615V50.4519H148.945L147.775 51.6042L150.588 54.4615ZM4.00962 9C4.00962 6.79617 5.79617 5.00962 8 5.00962V-3.00962C1.36727 -3.00962 -4.00962 2.36727 -4.00962 9H4.00962ZM4.00962 46.4615V9H-4.00962V46.4615H4.00962ZM8.00001 50.4519C5.79617 50.4519 4.00962 48.6654 4.00962 46.4615H-4.00962C-4.00962 53.0943 1.36728 58.4712 8.00001 58.4712V50.4519ZM127.754 50.4519H8.00001V58.4712H127.754V50.4519ZM141.034 61.9079L130.567 51.6042L124.941 57.3189L135.408 67.6227L141.034 61.9079ZM137.308 61.9079C138.344 60.8882 139.998 60.8882 141.034 61.9079L135.408 67.6227C137.493 69.6756 140.849 69.6756 142.934 67.6227L137.308 61.9079ZM147.775 51.6042L137.308 61.9079L142.934 67.6227L153.401 57.3189L147.775 51.6042ZM270 50.4519H150.588V58.4712H270V50.4519ZM273.99 46.4615C273.99 48.6654 272.204 50.4519 270 50.4519V58.4712C276.633 58.4712 282.01 53.0943 282.01 46.4615H273.99ZM273.99 9V46.4615H282.01V9H273.99ZM270 5.00962C272.204 5.00962 273.99 6.79617 273.99 9H282.01C282.01 2.36727 276.633 -3.00962 270 -3.00962V5.00962ZM8 5.00962H270V-3.00962H8V5.00962Z" fill="black" mask="url(#path-1-inside-1_3290_1762)"/>
  <path opacity="0.4" fill-rule="evenodd" clip-rule="evenodd" d="M29.2576 136.186C25.9226 138.7 23.6176 144.147 24.1286 148.274L26.9006 170.848C27.4086 174.994 30.9566 179.704 34.8006 181.336L55.7496 190.226C59.5936 191.857 65.4626 191.142 68.7796 188.626L86.9366 174.939C90.2726 172.425 92.5766 166.979 92.0666 162.852L89.2946 140.277C88.7846 136.131 85.2376 131.421 81.3936 129.789L60.4446 120.899C56.6006 119.268 50.7316 119.983 47.4156 122.499L29.2576 136.187V136.186Z" fill="#F6AE7A"/>
  <path opacity="0.4" fill-rule="evenodd" clip-rule="evenodd" d="M240.9 95.874C238.815 89.462 231.713 83.081 225.145 81.694L189.233 74.059C182.638 72.657 173.585 75.597 169.073 80.606L144.495 107.91C139.985 112.92 137.992 122.254 140.09 128.638L151.438 163.547C153.522 169.959 160.624 176.34 167.191 177.727L203.105 185.362C209.7 186.764 218.753 183.824 223.264 178.814L247.843 151.512C252.353 146.502 254.347 137.168 252.248 130.784L240.901 95.875L240.9 95.874Z" fill="#C9D2C3"/>
  <path d="M138.5 202V216" stroke="#020303" stroke-width="4" stroke-linecap="round" stroke-linejoin="round"/>
  <path d="M92.8429 217H184.157" stroke="#020303" stroke-width="4" stroke-linecap="round" stroke-linejoin="round"/>
  <rect x="62.4052" y="82" width="152.19" height="120" rx="8" fill="#EDF0EB" stroke="#020303" stroke-width="4" stroke-linecap="round" stroke-linejoin="round"/>
  <path fill-rule="evenodd" clip-rule="evenodd" d="M158.386 117.265L148.378 107.403C146.544 105.595 142.994 104.658 140.486 105.321L126.815 108.928C124.306 109.591 121.706 112.153 121.035 114.623L117.375 128.093C116.704 130.564 117.653 134.065 119.488 135.873L129.496 145.735C131.33 147.543 134.883 148.483 137.388 147.82L151.059 144.209C153.567 143.546 156.168 140.985 156.839 138.514L160.499 125.045C161.173 122.574 160.221 119.075 158.386 117.265" fill="#FF4612"/>
  <path fill-rule="evenodd" clip-rule="evenodd" d="M130.281 124.987C131.112 124.982 131.85 124.569 131.934 123.499L131.991 114.904C131.994 114.388 132.413 113.97 132.93 113.97H134.204C134.726 113.97 135.148 114.393 135.143 114.915L135.135 116.379C135.395 116.219 135.692 116.124 136.009 116.124C136.972 116.124 137.738 116.89 137.738 117.849C137.738 118.791 136.972 119.555 136.009 119.555C135.676 119.555 135.373 119.46 135.113 119.3L135.083 123.307C135.083 124.502 135.844 124.963 136.699 124.987C137.881 124.987 138.482 124.313 138.482 124.313L138.484 124.316C138.75 124.047 139.117 123.877 139.55 123.885H139.556C140.086 123.898 140.608 124.167 140.844 124.646C141.049 125.072 141.493 125.357 142.21 125.41C143.073 125.477 143.639 125.152 143.687 124.505C143.739 123.839 143.346 123.594 141.761 123.083C139.437 122.301 137.903 121.685 138.079 119.406C138.241 117.276 140.008 116.03 142.805 116.243C144.402 116.366 145.532 116.944 146.22 117.798C146.985 118.746 146.241 120.163 145.021 120.136C144.48 120.125 143.985 119.816 143.749 119.329C143.563 118.946 143.189 118.695 142.578 118.648C141.736 118.584 141.279 118.895 141.236 119.494C141.174 120.272 142.007 120.442 143.314 120.889C145.489 121.638 147.01 122.447 146.853 124.47C146.682 126.726 144.91 128.038 142.004 127.815C140.93 127.735 140.043 127.479 139.35 127.069C138.346 127.636 137.351 127.815 135.993 127.815C134.642 127.815 133.533 127.45 132.816 126.683C132.261 127.341 131.458 127.815 130.281 127.815C127.475 127.815 125.435 126.648 125.46 124.06L125.516 117.865C125.519 117.527 125.798 117.252 126.139 117.252H128.052C128.395 117.252 128.674 117.532 128.671 117.875L128.612 123.307C128.612 124.526 129.402 124.982 130.281 124.987" fill="#FEFEFE"/>
  <path fill-rule="evenodd" clip-rule="evenodd" d="M127.168 112.449C128.129 112.449 128.897 113.213 128.897 114.175C128.897 115.117 128.129 115.881 127.168 115.881C126.205 115.881 125.458 115.117 125.458 114.175C125.458 113.213 126.243 112.449 127.168 112.449" fill="#FEFEFE"/>
  <path fill-rule="evenodd" clip-rule="evenodd" d="M145.024 133.224C145.111 131.802 145.995 130.982 147.335 130.982C148.761 130.982 149.453 131.866 149.515 133.224H145.024ZM147.357 128.525C144.537 128.525 142.424 130.106 141.843 132.78C141.683 130.277 140.084 128.781 137.727 128.781C136.08 128.781 135.006 129.515 134.372 130.506C133.658 129.39 132.454 128.781 130.958 128.781C129.57 128.781 125.182 128.613 125.182 134.239C125.182 134.353 125.184 134.46 125.187 134.566L125.182 134.574V138.334C125.182 139.183 125.872 139.87 126.721 139.87C127.571 139.87 128.261 139.183 128.261 138.334V133.831C128.261 132.524 128.996 131.64 130.219 131.64C131.337 131.64 131.992 132.42 131.992 133.81V138.334C131.992 139.18 132.681 139.87 133.531 139.87C134.381 139.87 135.068 139.18 135.068 138.334V133.451C135.195 132.359 135.871 131.64 136.967 131.64C138.147 131.64 138.78 132.42 138.78 133.81V138.334C138.78 139.18 139.467 139.87 140.319 139.87C141.169 139.87 141.859 139.18 141.859 138.334V135.935C142.465 138.555 144.578 140.125 147.446 140.125C148.791 140.125 150.068 139.715 150.998 139.037C151.031 139.013 151.058 138.989 151.09 138.965C151.126 138.938 151.166 138.917 151.196 138.887C151.201 138.885 151.201 138.877 151.204 138.874C151.255 138.832 151.31 138.794 151.358 138.749C152.259 137.929 151.74 136.417 150.53 136.257C149.995 136.185 149.459 136.414 149.148 136.859C149.148 136.861 149.148 136.861 149.145 136.864C148.796 137.322 148.187 137.58 147.357 137.58C145.931 137.58 145.087 136.699 145.024 135.317H151.688C152.243 135.317 152.692 134.867 152.692 134.313V134.066C152.692 130.596 150.576 128.525 147.357 128.525Z" fill="#FEFEFE"/>
  <path d="M62.4049 172H214.595" stroke="#020303" stroke-width="4" stroke-linecap="round" stroke-linejoin="round"/>
  <ellipse cx="138.5" cy="187" rx="5.07299" ry="5" stroke="#020303" stroke-width="2.66667" stroke-linecap="round" stroke-linejoin="round"/>
  <path d="M92.891 217.072H183.774M195.135 217.072H205.135M215.135 217.072H235.135M67.8653 217.072H82.8653M52.8653 217.072H57.8653" stroke="#020303" stroke-width="4" stroke-linecap="round" stroke-linejoin="round"/>
  <rect x="65" y="23.054" width="184" height="10" rx="5" fill="#C9D2C3"/>
  <path fill-rule="evenodd" clip-rule="evenodd" d="M43.0532 38.4978L44.341 37.21C45.2197 36.3313 45.2197 34.9067 44.341 34.028L41.465 31.152C40.9024 30.5894 40.1393 30.2733 39.3437 30.2733C38.548 30.2733 37.7849 30.5894 37.2223 31.152L34.9677 33.4066C31.5813 32.1437 28.9102 29.4726 27.6473 26.0862L29.9019 23.8316C31.0735 22.66 31.0735 20.7606 29.9019 19.589L27.026 16.713C26.604 16.291 26.0317 16.054 25.435 16.054C24.8382 16.054 24.2659 16.291 23.844 16.713L22.5561 18.0008C21.5609 18.996 21.0012 20.3455 21 21.753V21.753C20.9958 26.608 22.9226 31.2653 26.3556 34.6983C29.7886 38.1313 34.4459 40.0581 39.3009 40.0539V40.0539C40.7084 40.0527 42.0579 39.493 43.0532 38.4978V38.4978Z" stroke="#323232" stroke-width="3" stroke-linecap="round" stroke-linejoin="round"/>
</svg>
